# xmcd CD database file
#
# Track frame offsets:
#	150
#	8924
#	18478
#	28220
#	37002
#	42294
#	48478
#	56741
#	69737
#	81939
#	89183
#	101524
#
# Disc length: 1592 seconds
#
# Revision: 3
# Processed by: cddbd v1.4PL0 Copyright (c) Steve Scherf et al.
# Submitted via: CDex 1.40Release
#
DISCID=a706360c
DTITLE=JR Ewing - Calling In Dead
DYEAR=1900
DGENRE=Blues
TTITLE0=everyone else
TTITLE1=an offer you can't refuse
TTITLE2=message recieved and misunderstood
TTITLE3=the switch
TTITLE4=skills vs. technicians
TTITLE5=the term: in connection
TTITLE6=graduation day
TTITLE7=render
TTITLE8=stars over night
TTITLE9=calling in dead
TTITLE10=the 24 hour hoax
TTITLE11=04.08.99
EXTD=ID3G: 0
EXTT0=
EXTT1=
EXTT2=
EXTT3=
EXTT4=
EXTT5=
EXTT6=
EXTT7=
EXTT8=
EXTT9=
EXTT10=
EXTT11=
PLAYORDER=
